<?xml version="1.0" encoding="UTF-8" standalone="no"?>
<!DOCTYPE svg PUBLIC "-//W3C//DTD SVG 1.1//EN"
 "http://www.w3.org/Graphics/SVG/1.1/DTD/svg11.dtd">
<!-- Generated by graphviz version 2.38.0 (20140413.2041)
 -->
<!-- Title: G Pages: 1 -->
<svg width="768pt" height="2964pt"
 viewBox="0.00 0.00 768.37 2963.60" xmlns="http://www.w3.org/2000/svg" xmlns:xlink="http://www.w3.org/1999/xlink">
<g id="graph0" class="graph" transform="scale(1 1) rotate(0) translate(4 2959.6)">
<title>G</title>
<polygon fill="white" stroke="none" points="-4,4 -4,-2959.6 764.368,-2959.6 764.368,4 -4,4"/>
<g id="clust1" class="cluster"><title>cluster_Global</title>
<path fill="none" stroke="gray" d="M272.678,-337.599C272.678,-337.599 740.368,-337.599 740.368,-337.599 746.368,-337.599 752.368,-343.599 752.368,-349.599 752.368,-349.599 752.368,-2935.6 752.368,-2935.6 752.368,-2941.6 746.368,-2947.6 740.368,-2947.6 740.368,-2947.6 272.678,-2947.6 272.678,-2947.6 266.678,-2947.6 260.678,-2941.6 260.678,-2935.6 260.678,-2935.6 260.678,-349.599 260.678,-349.599 260.678,-343.599 266.678,-337.599 272.678,-337.599"/>
<text text-anchor="middle" x="506.523" y="-2934.8" font-family="Times New Roman,serif" font-size="11.00" fill="gray">Global</text>
</g>
<!-- \\CPAC_Deprecated_Storage_Model_MLA -->
<g id="node1" class="node"><title>\\CPAC_Deprecated_Storage_Model_MLA</title>
<polygon fill="none" stroke="black" points="744.368,-2865.6 505.368,-2865.6 505.368,-2829.6 744.368,-2829.6 744.368,-2865.6"/>
<text text-anchor="middle" x="624.868" y="-2844.8" font-family="Courier,monospace" font-size="11.00">CPAC_Deprecated_Storage_Model_MLA</text>
</g>
<!-- \\CPAC_Storage_Model -->
<g id="node50" class="node"><title>\\CPAC_Storage_Model</title>
<ellipse fill="none" stroke="black" cx="324.178" cy="-311.599" rx="98.5829" ry="18"/>
<text text-anchor="middle" x="324.178" y="-307.899" font-family="Times New Roman,serif" font-size="14.00" fill="gray">\CPAC_Storage_Model</text>
</g>
<!-- \\CPAC_Deprecated_Storage_Model_MLA&#45;&gt;\\CPAC_Storage_Model -->
<g id="edge1" class="edge"><title>\\CPAC_Deprecated_Storage_Model_MLA&#45;&gt;\\CPAC_Storage_Model</title>
<path fill="none" stroke="black" d="M514.256,-2829.38C511.031,-2826.77 508.047,-2823.86 505.368,-2820.6 329.855,-2607.01 611.369,-545.116 433.368,-333.599 430.336,-329.995 426.889,-326.881 423.135,-324.195"/>
<polygon fill="none" stroke="black" points="424.84,-321.136 414.468,-318.976 421.229,-327.133 424.84,-321.136"/>
</g>
<!-- \\CPAC_Storage_Model_MLA -->
<g id="node2" class="node"><title>\\CPAC_Storage_Model_MLA</title>
<polygon fill="none" stroke="black" points="707.368,-2649.6 542.368,-2649.6 542.368,-2613.6 707.368,-2613.6 707.368,-2649.6"/>
<text text-anchor="middle" x="624.868" y="-2628.8" font-family="Courier,monospace" font-size="11.00">CPAC_Storage_Model_MLA</text>
</g>
<!-- \\AC_StorageModel_Media -->
<g id="node51" class="node"><title>\\AC_StorageModel_Media</title>
<ellipse fill="none" stroke="black" cx="324.178" cy="-257.599" rx="109.381" ry="18"/>
<text text-anchor="middle" x="324.178" y="-253.899" font-family="Times New Roman,serif" font-size="14.00" fill="gray">\AC_StorageModel_Media</text>
</g>
<!-- \\CPAC_Storage_Model_MLA&#45;&gt;\\AC_StorageModel_Media -->
<g id="edge2" class="edge"><title>\\CPAC_Storage_Model_MLA&#45;&gt;\\AC_StorageModel_Media</title>
<path fill="none" stroke="black" d="M542.274,-2627.7C528.059,-2623.29 514.824,-2616.08 505.368,-2604.6 341.423,-2405.51 595.26,-485.359 433.368,-284.599 429.924,-280.329 425.918,-276.673 421.515,-273.548"/>
<polygon fill="none" stroke="black" points="422.973,-270.34 412.603,-268.171 419.357,-276.334 422.973,-270.34"/>
</g>
<!-- \\MLA_Ajax -->
<g id="node3" class="node"><title>\\MLA_Ajax</title>
<polygon fill="none" stroke="black" points="660.368,-2811.6 589.368,-2811.6 589.368,-2775.6 660.368,-2775.6 660.368,-2811.6"/>
<text text-anchor="middle" x="624.868" y="-2790.8" font-family="Courier,monospace" font-size="11.00">MLA_Ajax</text>
</g>
<!-- \\MLACoreOptions -->
<g id="node4" class="node"><title>\\MLACoreOptions</title>
<polygon fill="none" stroke="black" points="680.368,-2757.6 569.368,-2757.6 569.368,-2721.6 680.368,-2721.6 680.368,-2757.6"/>
<text text-anchor="middle" x="624.868" y="-2736.8" font-family="Courier,monospace" font-size="11.00">MLACoreOptions</text>
</g>
<!-- \\MLACore -->
<g id="node5" class="node"><title>\\MLACore</title>
<polygon fill="none" stroke="black" points="656.868,-2703.6 592.868,-2703.6 592.868,-2667.6 656.868,-2667.6 656.868,-2703.6"/>
<text text-anchor="middle" x="624.868" y="-2682.8" font-family="Courier,monospace" font-size="11.00">MLACore</text>
</g>
<!-- \\MLA_Checklist_Walker -->
<g id="node6" class="node"><title>\\MLA_Checklist_Walker</title>
<polygon fill="none" stroke="black" points="700.868,-1839.6 548.868,-1839.6 548.868,-1803.6 700.868,-1803.6 700.868,-1839.6"/>
<text text-anchor="middle" x="624.868" y="-1818.8" font-family="Courier,monospace" font-size="11.00">MLA_Checklist_Walker</text>
</g>
<!-- \\Walker_Category -->
<g id="node52" class="node"><title>\\Walker_Category</title>
<ellipse fill="none" stroke="black" cx="324.178" cy="-203.599" rx="77.1866" ry="18"/>
<text text-anchor="middle" x="324.178" y="-199.899" font-family="Times New Roman,serif" font-size="14.00" fill="gray">\Walker_Category</text>
</g>
<!-- \\MLA_Checklist_Walker&#45;&gt;\\Walker_Category -->
<g id="edge3" class="edge"><title>\\MLA_Checklist_Walker&#45;&gt;\\Walker_Category</title>
<path fill="none" stroke="black" d="M548.82,-1819.38C532.22,-1815.23 516.331,-1807.71 505.368,-1794.6 393.78,-1661.14 543.579,-365.195 433.368,-230.599 426.63,-222.369 417.8,-216.429 408.088,-212.173"/>
<polygon fill="none" stroke="black" points="409.137,-208.829 398.545,-208.59 406.676,-215.382 409.137,-208.829"/>
</g>
<!-- \\MLAPDF -->
<g id="node7" class="node"><title>\\MLAPDF</title>
<polygon fill="none" stroke="black" points="653.368,-2595.6 596.368,-2595.6 596.368,-2559.6 653.368,-2559.6 653.368,-2595.6"/>
<text text-anchor="middle" x="624.868" y="-2574.8" font-family="Courier,monospace" font-size="11.00">MLAPDF</text>
</g>
<!-- \\MLAQuery -->
<g id="node8" class="node"><title>\\MLAQuery</title>
<polygon fill="none" stroke="black" points="660.368,-2541.6 589.368,-2541.6 589.368,-2505.6 660.368,-2505.6 660.368,-2541.6"/>
<text text-anchor="middle" x="624.868" y="-2520.8" font-family="Courier,monospace" font-size="11.00">MLAQuery</text>
</g>
<!-- \\MLAReferences -->
<g id="node9" class="node"><title>\\MLAReferences</title>
<polygon fill="none" stroke="black" points="676.868,-2487.6 572.868,-2487.6 572.868,-2451.6 676.868,-2451.6 676.868,-2487.6"/>
<text text-anchor="middle" x="624.868" y="-2466.8" font-family="Courier,monospace" font-size="11.00">MLAReferences</text>
</g>
<!-- \\MLAData_Source -->
<g id="node10" class="node"><title>\\MLAData_Source</title>
<polygon fill="none" stroke="black" points="680.368,-2433.6 569.368,-2433.6 569.368,-2397.6 680.368,-2397.6 680.368,-2433.6"/>
<text text-anchor="middle" x="624.868" y="-2412.8" font-family="Courier,monospace" font-size="11.00">MLAData_Source</text>
</g>
<!-- \\MLAData -->
<g id="node11" class="node"><title>\\MLAData</title>
<polygon fill="none" stroke="black" points="656.868,-2379.6 592.868,-2379.6 592.868,-2343.6 656.868,-2343.6 656.868,-2379.6"/>
<text text-anchor="middle" x="624.868" y="-2358.8" font-family="Courier,monospace" font-size="11.00">MLAData</text>
</g>
<!-- \\MLAEdit -->
<g id="node12" class="node"><title>\\MLAEdit</title>
<polygon fill="none" stroke="black" points="656.868,-2325.6 592.868,-2325.6 592.868,-2289.6 656.868,-2289.6 656.868,-2325.6"/>
<text text-anchor="middle" x="624.868" y="-2304.8" font-family="Courier,monospace" font-size="11.00">MLAEdit</text>
</g>
<!-- \\MLAFileDownloader -->
<g id="node13" class="node"><title>\\MLAFileDownloader</title>
<polygon fill="none" stroke="black" points="690.368,-2271.6 559.368,-2271.6 559.368,-2235.6 690.368,-2235.6 690.368,-2271.6"/>
<text text-anchor="middle" x="624.868" y="-2250.8" font-family="Courier,monospace" font-size="11.00">MLAFileDownloader</text>
</g>
<!-- \\MLAImageProcessor -->
<g id="node14" class="node"><title>\\MLAImageProcessor</title>
<polygon fill="none" stroke="black" points="690.368,-2217.6 559.368,-2217.6 559.368,-2181.6 690.368,-2181.6 690.368,-2217.6"/>
<text text-anchor="middle" x="624.868" y="-2196.8" font-family="Courier,monospace" font-size="11.00">MLAImageProcessor</text>
</g>
<!-- \\MLAMutex -->
<g id="node15" class="node"><title>\\MLAMutex</title>
<polygon fill="none" stroke="black" points="660.368,-2163.6 589.368,-2163.6 589.368,-2127.6 660.368,-2127.6 660.368,-2163.6"/>
<text text-anchor="middle" x="624.868" y="-2142.8" font-family="Courier,monospace" font-size="11.00">MLAMutex</text>
</g>
<!-- \\MLA_List_Table -->
<g id="node16" class="node"><title>\\MLA_List_Table</title>
<polygon fill="none" stroke="black" points="379.678,-1651.6 268.678,-1651.6 268.678,-1615.6 379.678,-1615.6 379.678,-1651.6"/>
<text text-anchor="middle" x="324.178" y="-1630.8" font-family="Courier,monospace" font-size="11.00">MLA_List_Table</text>
</g>
<!-- \\WP_List_Table -->
<g id="node53" class="node"><title>\\WP_List_Table</title>
<ellipse fill="none" stroke="black" cx="71.4937" cy="-103.599" rx="71.4873" ry="18"/>
<text text-anchor="middle" x="71.4937" y="-99.8988" font-family="Times New Roman,serif" font-size="14.00" fill="gray">\WP_List_Table</text>
</g>
<!-- \\MLA_List_Table&#45;&gt;\\WP_List_Table -->
<g id="edge4" class="edge"><title>\\MLA_List_Table&#45;&gt;\\WP_List_Table</title>
<path fill="none" stroke="black" d="M320.188,-1615.35C294.327,-1457.51 108.675,-324.424 77.064,-131.493"/>
<polygon fill="none" stroke="black" points="80.5094,-130.874 75.4384,-121.572 73.6015,-132.006 80.5094,-130.874"/>
</g>
<!-- \\MLA -->
<g id="node17" class="node"><title>\\MLA</title>
<polygon fill="none" stroke="black" points="651.868,-2109.6 597.868,-2109.6 597.868,-2073.6 651.868,-2073.6 651.868,-2109.6"/>
<text text-anchor="middle" x="624.868" y="-2088.8" font-family="Courier,monospace" font-size="11.00">MLA</text>
</g>
<!-- \\MLAModal_Ajax -->
<g id="node18" class="node"><title>\\MLAModal_Ajax</title>
<polygon fill="none" stroke="black" points="676.868,-2055.6 572.868,-2055.6 572.868,-2019.6 676.868,-2019.6 676.868,-2055.6"/>
<text text-anchor="middle" x="624.868" y="-2034.8" font-family="Courier,monospace" font-size="11.00">MLAModal_Ajax</text>
</g>
<!-- \\MLAModal -->
<g id="node19" class="node"><title>\\MLAModal</title>
<polygon fill="none" stroke="black" points="660.368,-2001.6 589.368,-2001.6 589.368,-1965.6 660.368,-1965.6 660.368,-2001.6"/>
<text text-anchor="middle" x="624.868" y="-1980.8" font-family="Courier,monospace" font-size="11.00">MLAModal</text>
</g>
<!-- \\MLAMime -->
<g id="node20" class="node"><title>\\MLAMime</title>
<polygon fill="none" stroke="black" points="656.868,-1947.6 592.868,-1947.6 592.868,-1911.6 656.868,-1911.6 656.868,-1947.6"/>
<text text-anchor="middle" x="624.868" y="-1926.8" font-family="Courier,monospace" font-size="11.00">MLAMime</text>
</g>
<!-- \\MLAObjects -->
<g id="node21" class="node"><title>\\MLAObjects</title>
<polygon fill="none" stroke="black" points="666.868,-1893.6 582.868,-1893.6 582.868,-1857.6 666.868,-1857.6 666.868,-1893.6"/>
<text text-anchor="middle" x="624.868" y="-1872.8" font-family="Courier,monospace" font-size="11.00">MLAObjects</text>
</g>
<!-- \\MLATextWidget -->
<g id="node22" class="node"><title>\\MLATextWidget</title>
<polygon fill="none" stroke="black" points="676.868,-1515.6 572.868,-1515.6 572.868,-1479.6 676.868,-1479.6 676.868,-1515.6"/>
<text text-anchor="middle" x="624.868" y="-1494.8" font-family="Courier,monospace" font-size="11.00">MLATextWidget</text>
</g>
<!-- \\WP_Widget -->
<g id="node54" class="node"><title>\\WP_Widget</title>
<ellipse fill="none" stroke="black" cx="324.178" cy="-149.599" rx="58.4896" ry="18"/>
<text text-anchor="middle" x="324.178" y="-145.899" font-family="Times New Roman,serif" font-size="14.00" fill="gray">\WP_Widget</text>
</g>
<!-- \\MLATextWidget&#45;&gt;\\WP_Widget -->
<g id="edge5" class="edge"><title>\\MLATextWidget&#45;&gt;\\WP_Widget</title>
<path fill="none" stroke="black" d="M572.599,-1499.19C548.536,-1497.03 521.634,-1489.86 505.368,-1470.6 319.574,-1250.54 616.892,-398.551 433.368,-176.599 423.198,-164.299 408.358,-157.121 392.91,-153.042"/>
<polygon fill="none" stroke="black" points="393.234,-149.529 382.714,-150.786 391.722,-156.364 393.234,-149.529"/>
</g>
<!-- \\MLAOptions -->
<g id="node23" class="node"><title>\\MLAOptions</title>
<polygon fill="none" stroke="black" points="666.868,-1785.6 582.868,-1785.6 582.868,-1749.6 666.868,-1749.6 666.868,-1785.6"/>
<text text-anchor="middle" x="624.868" y="-1764.8" font-family="Courier,monospace" font-size="11.00">MLAOptions</text>
</g>
<!-- \\MLA_Polylang_Shortcodes -->
<g id="node24" class="node"><title>\\MLA_Polylang_Shortcodes</title>
<polygon fill="none" stroke="black" points="710.868,-1731.6 538.868,-1731.6 538.868,-1695.6 710.868,-1695.6 710.868,-1731.6"/>
<text text-anchor="middle" x="624.868" y="-1710.8" font-family="Courier,monospace" font-size="11.00">MLA_Polylang_Shortcodes</text>
</g>
<!-- \\MLA_Polylang -->
<g id="node25" class="node"><title>\\MLA_Polylang</title>
<polygon fill="none" stroke="black" points="673.868,-1677.6 575.868,-1677.6 575.868,-1641.6 673.868,-1641.6 673.868,-1677.6"/>
<text text-anchor="middle" x="624.868" y="-1656.8" font-family="Courier,monospace" font-size="11.00">MLA_Polylang</text>
</g>
<!-- \\MLASettings_CustomFields -->
<g id="node26" class="node"><title>\\MLASettings_CustomFields</title>
<polygon fill="none" stroke="black" points="714.368,-1623.6 535.368,-1623.6 535.368,-1587.6 714.368,-1587.6 714.368,-1623.6"/>
<text text-anchor="middle" x="624.868" y="-1602.8" font-family="Courier,monospace" font-size="11.00">MLASettings_CustomFields</text>
</g>
<!-- \\MLASettings_Documentation -->
<g id="node27" class="node"><title>\\MLASettings_Documentation</title>
<polygon fill="none" stroke="black" points="717.368,-1569.6 532.368,-1569.6 532.368,-1533.6 717.368,-1533.6 717.368,-1569.6"/>
<text text-anchor="middle" x="624.868" y="-1548.8" font-family="Courier,monospace" font-size="11.00">MLASettings_Documentation</text>
</g>
<!-- \\MLA_Example_List_Table -->
<g id="node28" class="node"><title>\\MLA_Example_List_Table</title>
<polygon fill="none" stroke="black" points="707.368,-1461.6 542.368,-1461.6 542.368,-1425.6 707.368,-1425.6 707.368,-1461.6"/>
<text text-anchor="middle" x="624.868" y="-1440.8" font-family="Courier,monospace" font-size="11.00">MLA_Example_List_Table</text>
</g>
<!-- \\MLA_Example_List_Table&#45;&gt;\\WP_List_Table -->
<g id="edge6" class="edge"><title>\\MLA_Example_List_Table&#45;&gt;\\WP_List_Table</title>
<path fill="none" stroke="black" d="M542.193,-1439.42C528.074,-1435.02 514.896,-1427.88 505.368,-1416.6 319.574,-1196.54 637.318,-325.942 433.368,-122.599 394.788,-84.1334 242.467,-89.1138 148.486,-96.2954"/>
<polygon fill="none" stroke="black" points="148.147,-92.8111 138.453,-97.0872 148.698,-99.7894 148.147,-92.8111"/>
</g>
<!-- \\MLA_Upgrader_Skin -->
<g id="node29" class="node"><title>\\MLA_Upgrader_Skin</title>
<polygon fill="none" stroke="black" points="690.368,-1299.6 559.368,-1299.6 559.368,-1263.6 690.368,-1263.6 690.368,-1299.6"/>
<text text-anchor="middle" x="624.868" y="-1278.8" font-family="Courier,monospace" font-size="11.00">MLA_Upgrader_Skin</text>
</g>
<!-- \\WP_Upgrader_Skin -->
<g id="node55" class="node"><title>\\WP_Upgrader_Skin</title>
<ellipse fill="none" stroke="black" cx="324.178" cy="-57.5988" rx="87.1846" ry="18"/>
<text text-anchor="middle" x="324.178" y="-53.8988" font-family="Times New Roman,serif" font-size="14.00" fill="gray">\WP_Upgrader_Skin</text>
</g>
<!-- \\MLA_Upgrader_Skin&#45;&gt;\\WP_Upgrader_Skin -->
<g id="edge7" class="edge"><title>\\MLA_Upgrader_Skin&#45;&gt;\\WP_Upgrader_Skin</title>
<path fill="none" stroke="black" d="M559.16,-1281.4C539.051,-1277.93 518.688,-1270.28 505.368,-1254.6 337.428,-1056.92 594.943,-292.51 433.368,-89.5988 426.849,-81.4124 418.339,-75.2492 408.953,-70.6213"/>
<polygon fill="none" stroke="black" points="410.29,-67.3864 399.722,-66.6387 407.517,-73.8138 410.29,-67.3864"/>
</g>
<!-- \\MLASettings_IPTCEXIF -->
<g id="node30" class="node"><title>\\MLASettings_IPTCEXIF</title>
<polygon fill="none" stroke="black" points="700.868,-1407.6 548.868,-1407.6 548.868,-1371.6 700.868,-1371.6 700.868,-1407.6"/>
<text text-anchor="middle" x="624.868" y="-1386.8" font-family="Courier,monospace" font-size="11.00">MLASettings_IPTCEXIF</text>
</g>
<!-- \\MLASettings_Shortcodes -->
<g id="node31" class="node"><title>\\MLASettings_Shortcodes</title>
<polygon fill="none" stroke="black" points="707.368,-1353.6 542.368,-1353.6 542.368,-1317.6 707.368,-1317.6 707.368,-1353.6"/>
<text text-anchor="middle" x="624.868" y="-1332.8" font-family="Courier,monospace" font-size="11.00">MLASettings_Shortcodes</text>
</g>
<!-- \\MLA_Template_List_Table -->
<g id="node32" class="node"><title>\\MLA_Template_List_Table</title>
<polygon fill="none" stroke="black" points="710.868,-1137.6 538.868,-1137.6 538.868,-1101.6 710.868,-1101.6 710.868,-1137.6"/>
<text text-anchor="middle" x="624.868" y="-1116.8" font-family="Courier,monospace" font-size="11.00">MLA_Template_List_Table</text>
</g>
<!-- \\MLA_Template_List_Table&#45;&gt;\\WP_List_Table -->
<g id="edge8" class="edge"><title>\\MLA_Template_List_Table&#45;&gt;\\WP_List_Table</title>
<path fill="none" stroke="black" d="M538.69,-1114.14C525.935,-1109.68 514.142,-1102.86 505.368,-1092.6 351.679,-912.789 591.519,-206.497 433.368,-30.5988 400.727,5.70526 369.127,-32.8562 325.178,-11.5988"/>
</g>
<!-- \\MLA_Template_Query -->
<g id="node33" class="node"><title>\\MLA_Template_Query</title>
<polygon fill="none" stroke="black" points="693.868,-1245.6 555.868,-1245.6 555.868,-1209.6 693.868,-1209.6 693.868,-1245.6"/>
<text text-anchor="middle" x="624.868" y="-1224.8" font-family="Courier,monospace" font-size="11.00">MLA_Template_Query</text>
</g>
<!-- \\MLASettings_Upload -->
<g id="node34" class="node"><title>\\MLASettings_Upload</title>
<polygon fill="none" stroke="black" points="693.868,-1191.6 555.868,-1191.6 555.868,-1155.6 693.868,-1155.6 693.868,-1191.6"/>
<text text-anchor="middle" x="624.868" y="-1170.8" font-family="Courier,monospace" font-size="11.00">MLASettings_Upload</text>
</g>
<!-- \\MLA_Upload_List_Table -->
<g id="node35" class="node"><title>\\MLA_Upload_List_Table</title>
<polygon fill="none" stroke="black" points="703.868,-1083.6 545.868,-1083.6 545.868,-1047.6 703.868,-1047.6 703.868,-1083.6"/>
<text text-anchor="middle" x="624.868" y="-1062.8" font-family="Courier,monospace" font-size="11.00">MLA_Upload_List_Table</text>
</g>
<!-- \\MLA_Upload_List_Table&#45;&gt;\\WP_List_Table -->
<g id="edge9" class="edge"><title>\\MLA_Upload_List_Table&#45;&gt;\\WP_List_Table</title>
<path fill="none" stroke="black" d="M545.679,-1062.29C530.302,-1058 515.74,-1050.69 505.368,-1038.6 359.149,-868.152 583.817,-197.323 433.368,-30.5988 400.661,5.64621 369.127,-32.8562 325.178,-11.5988"/>
</g>
<!-- \\MLA_Upload_Optional_List_Table -->
<g id="node36" class="node"><title>\\MLA_Upload_Optional_List_Table</title>
<polygon fill="none" stroke="black" points="734.368,-975.599 515.368,-975.599 515.368,-939.599 734.368,-939.599 734.368,-975.599"/>
<text text-anchor="middle" x="624.868" y="-954.799" font-family="Courier,monospace" font-size="11.00">MLA_Upload_Optional_List_Table</text>
</g>
<!-- \\MLA_Upload_Optional_List_Table&#45;&gt;\\WP_List_Table -->
<g id="edge10" class="edge"><title>\\MLA_Upload_Optional_List_Table&#45;&gt;\\WP_List_Table</title>
<path fill="none" stroke="black" d="M514.959,-939.585C511.488,-936.932 508.267,-933.95 505.368,-930.599 374.083,-778.874 568.418,-178.982 433.368,-30.5988 400.507,5.50651 369.127,-32.8562 325.178,-11.5988"/>
</g>
<!-- \\MLASettings_View -->
<g id="node37" class="node"><title>\\MLASettings_View</title>
<polygon fill="none" stroke="black" points="687.368,-1029.6 562.368,-1029.6 562.368,-993.599 687.368,-993.599 687.368,-1029.6"/>
<text text-anchor="middle" x="624.868" y="-1008.8" font-family="Courier,monospace" font-size="11.00">MLASettings_View</text>
</g>
<!-- \\MLA_View_List_Table -->
<g id="node38" class="node"><title>\\MLA_View_List_Table</title>
<polygon fill="none" stroke="black" points="697.368,-543.599 552.368,-543.599 552.368,-507.599 697.368,-507.599 697.368,-543.599"/>
<text text-anchor="middle" x="624.868" y="-522.799" font-family="Courier,monospace" font-size="11.00">MLA_View_List_Table</text>
</g>
<!-- \\MLA_View_List_Table&#45;&gt;\\WP_List_Table -->
<g id="edge11" class="edge"><title>\\MLA_View_List_Table&#45;&gt;\\WP_List_Table</title>
<path fill="none" stroke="black" d="M323.178,-11.5988C244.633,26.3913 146.09,-41.1979 99.4025,-79.6636"/>
<polygon fill="none" stroke="black" points="96.9721,-77.1343 91.5693,-86.2481 101.476,-82.4927 96.9721,-77.1343"/>
<path fill="none" stroke="black" d="M552.244,-523.122C534.759,-519.112 517.589,-511.725 505.368,-498.599 361.964,-344.575 580.591,-180.976 433.368,-30.5988 399.214,4.28639 369.127,-32.8562 325.178,-11.5988"/>
</g>
<!-- \\MLASettings -->
<g id="node39" class="node"><title>\\MLASettings</title>
<polygon fill="none" stroke="black" points="670.368,-921.599 579.368,-921.599 579.368,-885.599 670.368,-885.599 670.368,-921.599"/>
<text text-anchor="middle" x="624.868" y="-900.799" font-family="Courier,monospace" font-size="11.00">MLASettings</text>
</g>
<!-- \\MLAShortcode_Support -->
<g id="node40" class="node"><title>\\MLAShortcode_Support</title>
<polygon fill="none" stroke="black" points="700.868,-867.599 548.868,-867.599 548.868,-831.599 700.868,-831.599 700.868,-867.599"/>
<text text-anchor="middle" x="624.868" y="-846.799" font-family="Courier,monospace" font-size="11.00">MLAShortcode_Support</text>
</g>
<!-- \\MLAShortcodes -->
<g id="node41" class="node"><title>\\MLAShortcodes</title>
<polygon fill="none" stroke="black" points="676.868,-813.599 572.868,-813.599 572.868,-777.599 676.868,-777.599 676.868,-813.599"/>
<text text-anchor="middle" x="624.868" y="-792.799" font-family="Courier,monospace" font-size="11.00">MLAShortcodes</text>
</g>
<!-- \\MLATemplate_Support -->
<g id="node42" class="node"><title>\\MLATemplate_Support</title>
<polygon fill="none" stroke="black" points="697.368,-759.599 552.368,-759.599 552.368,-723.599 697.368,-723.599 697.368,-759.599"/>
<text text-anchor="middle" x="624.868" y="-738.799" font-family="Courier,monospace" font-size="11.00">MLATemplate_Support</text>
</g>
<!-- \\MLA_Thumbnail -->
<g id="node43" class="node"><title>\\MLA_Thumbnail</title>
<polygon fill="none" stroke="black" points="676.868,-705.599 572.868,-705.599 572.868,-669.599 676.868,-669.599 676.868,-705.599"/>
<text text-anchor="middle" x="624.868" y="-684.799" font-family="Courier,monospace" font-size="11.00">MLA_Thumbnail</text>
</g>
<!-- \\MLA_WPML_Shortcodes -->
<g id="node44" class="node"><title>\\MLA_WPML_Shortcodes</title>
<polygon fill="none" stroke="black" points="697.368,-651.599 552.368,-651.599 552.368,-615.599 697.368,-615.599 697.368,-651.599"/>
<text text-anchor="middle" x="624.868" y="-630.799" font-family="Courier,monospace" font-size="11.00">MLA_WPML_Shortcodes</text>
</g>
<!-- \\MLA_WPML -->
<g id="node45" class="node"><title>\\MLA_WPML</title>
<polygon fill="none" stroke="black" points="660.368,-597.599 589.368,-597.599 589.368,-561.599 660.368,-561.599 660.368,-597.599"/>
<text text-anchor="middle" x="624.868" y="-576.799" font-family="Courier,monospace" font-size="11.00">MLA_WPML</text>
</g>
<!-- \\MLA_WPML_List_Table -->
<g id="node46" class="node"><title>\\MLA_WPML_List_Table</title>
<polygon fill="none" stroke="black" points="697.368,-2919.6 552.368,-2919.6 552.368,-2883.6 697.368,-2883.6 697.368,-2919.6"/>
<text text-anchor="middle" x="624.868" y="-2898.8" font-family="Courier,monospace" font-size="11.00">MLA_WPML_List_Table</text>
</g>
<!-- \\MLA_WPML_List_Table&#45;&gt;\\MLA_List_Table -->
<g id="edge12" class="edge"><title>\\MLA_WPML_List_Table&#45;&gt;\\MLA_List_Table</title>
<path fill="none" stroke="black" d="M552.169,-2899.19C534.685,-2895.18 517.534,-2887.78 505.368,-2874.6 334.936,-2689.99 325.354,-1829.44 325.118,-1661.91"/>
<polygon fill="none" stroke="black" points="328.618,-1661.68 325.114,-1651.68 321.618,-1661.68 328.618,-1661.68"/>
</g>
<!-- \\MLA_WPML_Table -->
<g id="node47" class="node"><title>\\MLA_WPML_Table</title>
<polygon fill="none" stroke="black" points="680.368,-489.599 569.368,-489.599 569.368,-453.599 680.368,-453.599 680.368,-489.599"/>
<text text-anchor="middle" x="624.868" y="-468.799" font-family="Courier,monospace" font-size="11.00">MLA_WPML_Table</text>
</g>
<!-- \\MLAUninstall -->
<g id="node48" class="node"><title>\\MLAUninstall</title>
<polygon fill="none" stroke="black" points="673.868,-435.599 575.868,-435.599 575.868,-399.599 673.868,-399.599 673.868,-435.599"/>
<text text-anchor="middle" x="624.868" y="-414.799" font-family="Courier,monospace" font-size="11.00">MLAUninstall</text>
</g>
<!-- \\MLATest -->
<g id="node49" class="node"><title>\\MLATest</title>
<polygon fill="none" stroke="black" points="656.868,-381.599 592.868,-381.599 592.868,-345.599 656.868,-345.599 656.868,-381.599"/>
<text text-anchor="middle" x="624.868" y="-360.799" font-family="Courier,monospace" font-size="11.00">MLATest</text>
</g>
</g>
</svg>
